<svg xmlns="http://www.w3.org/2000/svg" width="34.999" height="34"><g data-name="Vector Smart Object"><path data-name="Path 5" d="M17.5 34A17.007 17.007 0 100 17a17.254 17.254 0 0017.5 17" fill="#e33e43"/><path data-name="Path 6" d="M17.5 8.455a8.628 8.628 0 00-8.75 8.5 8.5 8.5 0 005.238 7.784 7.273 7.273 0 01.152-1.952l1.126-4.631a3.187 3.187 0 01-.28-1.345c0-1.259.752-2.2 1.687-2.2a1.152 1.152 0 011.181 1.276 17.853 17.853 0 01-.773 3.016 1.326 1.326 0 001.386 1.638c1.658 0 2.774-2.068 2.774-4.519 0-1.862-1.292-3.257-3.64-3.257a4.086 4.086 0 00-4.308 4.069 2.408 2.408 0 00.576 1.667.407.407 0 01.127.475c-.042.155-.138.533-.178.682a.3.3 0 01-.438.213 3.255 3.255 0 01-1.791-3.247c0-2.414 2.095-5.311 6.253-5.311 3.341 0 5.539 2.35 5.539 4.87 0 3.335-1.908 5.825-4.721 5.825a2.529 2.529 0 01-2.137-1.059s-.508 1.958-.616 2.336a6.968 6.968 0 01-.881 1.82 8.975 8.975 0 002.48.349 8.5 8.5 0 100-17" fill="#fff"/></g></svg>