<svg xmlns="http://www.w3.org/2000/svg" width="35" height="34"><g data-name="Vector Smart Object"><path data-name="Path 1" d="M17.5 34A17.007 17.007 0 100 17a17.255 17.255 0 0017.5 17" fill="#60c3ee"/><path data-name="Path 2" d="M26.28 12.547a7.344 7.344 0 01-2.066.55 3.511 3.511 0 001.581-1.932 7.324 7.324 0 01-2.284.847 3.639 3.639 0 00-2.625-1.1 3.546 3.546 0 00-3.6 3.493 3.385 3.385 0 00.093.8 10.309 10.309 0 01-7.412-3.651 3.413 3.413 0 00-.487 1.758 3.467 3.467 0 001.6 2.908 3.672 3.672 0 01-1.63-.436v.043a3.52 3.52 0 002.885 3.425 3.608 3.608 0 01-.948.123 3.662 3.662 0 01-.676-.062 3.583 3.583 0 003.358 2.425 7.347 7.347 0 01-4.466 1.5 7.581 7.581 0 01-.858-.048 10.413 10.413 0 005.513 1.568 10.009 10.009 0 0010.236-9.953c0-.152 0-.3-.009-.453a7.184 7.184 0 001.794-1.808" fill="#fff"/></g></svg>