<svg fill="#fff" height="512" width="512" xmlns="http://www.w3.org/2000/svg"><path d="M312.003 241.975a7.5 7.5 0 00-10.573.841l-26.905 31.556a37.822 37.822 0 00-18.496-4.805c-1.024 0-2.038.041-3.041.121l-5.136.382-51.722-118.744h5.551c15.341 0 27.822-12.436 27.822-27.721 0-9.501-7.751-17.231-17.279-17.231h-53.433c-9.528 0-17.279 7.73-17.279 17.231 0 15.285 12.481 27.721 27.822 27.721h10.436l14.178 32.551-42.413 41.703c-15.4-10.086-33.798-15.956-53.541-15.956C43.959 209.623 0 253.587 0 307.625s43.959 98.002 97.992 98.002c42.355 0 78.519-27.014 92.173-64.719l65.864 4.775c20.984 0 38.056-17.073 38.056-38.059a37.87 37.87 0 00-8.152-23.513l26.912-31.564a7.5 7.5 0 00-.842-10.572zm-142.672-105.65c-7.07 0-12.822-5.706-12.822-12.721 0-1.23 1.022-2.231 2.279-2.231h53.433c1.257 0 2.279 1.001 2.279 2.231 0 7.015-5.752 12.721-12.822 12.721zm-16.52 109.033c9.338 8.233 16.816 18.529 21.715 30.168l-56.686 4.218zM97.992 390.627C52.23 390.627 15 353.393 15 307.625s37.23-83.002 82.992-83.002c15.543 0 30.101 4.295 42.551 11.761l-45.827 45.059c-13.007 1.618-23.106 12.742-23.106 26.181 0 13.992 10.948 25.475 24.726 26.332l78.179 5.792c-12.579 29.863-42.143 50.879-76.523 50.879zm11.381-83.002c0 6.277-5.105 11.384-11.381 11.384s-11.382-5.106-11.382-11.384 5.106-11.384 11.382-11.384 11.381 5.107 11.381 11.384zm69.784 17.359l-58.247-4.303c2.203-3.852 3.463-8.31 3.463-13.057s-1.26-9.204-3.463-13.057l58.247-4.303c1.196 5.6 1.826 11.407 1.826 17.359s-.63 11.761-1.826 17.361zm44.937 3.32l-29.858-2.206c1.146-5.984 1.746-12.16 1.746-18.473s-.6-12.489-1.746-18.474l29.858-2.206c-3.871 5.958-6.121 13.061-6.121 20.679s2.251 14.722 6.121 20.68zm-33.922-53.943c-5.538-15.303-14.784-28.846-26.647-39.538l36.836-36.219 31.642 72.645zm65.856 56.323c-12.713 0-23.055-10.344-23.055-23.059s10.342-23.059 23.055-23.059c2.977 0 5.825.567 8.44 1.6l-14.147 16.593a7.5 7.5 0 005.704 12.366c2.12 0 4.227-.895 5.71-2.634l14.142-16.587a22.925 22.925 0 013.206 11.721c.001 12.715-10.342 23.059-23.055 23.059zm157.98-121.061a97.662 97.662 0 00-29.11 4.414l-36.107-92.664h42.461c1.257 0 2.279 1.001 2.279 2.231 0 7.015-5.752 12.721-12.822 12.721-4.142 0-7.5 3.357-7.5 7.5s3.358 7.5 7.5 7.5c15.341 0 27.822-12.436 27.822-27.721 0-9.501-7.751-17.231-17.279-17.231H337.82a7.5 7.5 0 00-6.988 10.223l24.532 62.96-31 36.36a7.5 7.5 0 1011.413 9.732l25.769-30.224 9.418 24.17c-32.514 15.966-54.948 49.428-54.948 88.032 0 54.038 43.958 98.002 97.991 98.002S512 361.663 512 307.625s-43.959-98.002-97.992-98.002zm0 181.004c-45.762 0-82.991-37.234-82.991-83.002 0-32.25 18.486-60.263 45.417-73.997l20.879 53.584c-5.909 4.843-9.686 12.195-9.686 20.413 0 14.548 11.834 26.384 26.381 26.384s26.382-11.836 26.382-26.384-11.835-26.384-26.382-26.384c-.967 0-1.922.053-2.863.155l-20.784-53.341a82.722 82.722 0 0123.648-3.432c45.762 0 82.992 37.234 82.992 83.002s-37.231 83.002-82.993 83.002zm-11.381-83.002c0-6.277 5.105-11.384 11.381-11.384s11.382 5.106 11.382 11.384-5.106 11.384-11.382 11.384-11.381-5.107-11.381-11.384z"/></svg>